<svg xmlns="http://www.w3.org/2000/svg" width="96" height="96" fill="none" viewBox="0 0 96 96" id="diamond">
  <path fill="#FFD568" d="M87 37L48 85L9 37L28 13H68L87 37Z"></path>
  <path fill="#AA5416" fill-rule="evenodd" d="M48 87C47.3977 87 46.8276 86.7286 46.4478 86.2612L7.44777 38.2612C6.85674 37.5338 6.85014 36.4935 7.43191 35.7586L26.4319 11.7586C26.8112 11.2794 27.3889 11 28 11H68C68.6111 11 69.1888 11.2794 69.5681 11.7586L88.5681 35.7586C89.1499 36.4935 89.1433 37.5338 88.5522 38.2612L49.5522 86.2612C49.1724 86.7286 48.6023 87 48 87ZM28 13H68L87 37L48 85L9 37L28 13Z" clip-rule="evenodd"></path>
  <path fill="#FFBC3A" d="M87 37L48 85L45 37L48 13H68L87 37Z"></path>
  <path fill="#FFE895" d="M9 37L48 85L16 37L36 13H28L9 37Z"></path>
  <path fill="#DB7E12" d="M87 37L48 85L68 37L48 13H68L87 37Z"></path>
  <path fill="#F09224" d="M77 37L48 85L68 37L48 13H58L77 37Z"></path>
  <path fill="#fff" fill-rule="evenodd" d="M28.926 15.7335C29.3059 15.2693 29.874 15 30.4739 15H42C42.5523 15 43 15.4477 43 16C43 16.5523 42.5523 17 42 17L30.4739 17L17.274 33.1332C16.9243 33.5607 16.2942 33.6237 15.8668 33.274C15.4393 32.9242 15.3763 32.2942 15.7261 31.8668L28.926 15.7335Z" clip-rule="evenodd"></path>
  <path fill="#AA5416" fill-rule="evenodd" d="M8 37C8 36.4477 8.44772 36 9 36H87C87.5523 36 88 36.4477 88 37C88 37.5523 87.5523 38 87 38H9C8.44772 38 8 37.5523 8 37Z" clip-rule="evenodd"></path>
  <path fill="#AA5416" fill-rule="evenodd" d="M48 86C48.407 86 48.7733 85.7534 48.9265 85.3764L68.4265 37.3764C68.5638 37.0384 68.5062 36.6525 68.2761 36.3694L48.7761 12.3694C48.5862 12.1357 48.3011 12 48 12C47.6989 12 47.4138 12.1357 47.2239 12.3694L27.7239 36.3694C27.4939 36.6525 27.4363 37.0384 27.5735 37.3764L47.0735 85.3764C47.2267 85.7534 47.5931 86 48 86ZM29.6491 37.1716L48 14.5858L66.3509 37.1716L48 82.3431L29.6491 37.1716Z" clip-rule="evenodd"></path>
</svg>
